<svg width="194" height="22" viewBox="0 0 194 22" fill="none" xmlns="http://www.w3.org/2000/svg">
<g id="logo">
<g id="XMLID_234_">
<path id="XMLID_243_" d="M14.6875 1.85928V12.6405C14.6875 16.2343 13.125 17.7187 9.375 17.7187C5.625 17.7187 4.0625 16.2343 4.0625 12.6405V1.39053H0.46875C0.234375 1.39053 0 1.62491 0 1.85928V12.7968C0 18.8124 3.82812 20.9218 9.375 20.9218C14.9219 20.9218 18.75 18.8124 18.75 12.7968V1.39053H15.1562C14.9219 1.39053 14.6875 1.54678 14.6875 1.85928Z" fill="white"/>
<path id="XMLID_242_" d="M66.9531 4.51556C67.2656 4.51556 67.4219 4.43744 67.5 4.20306L68.5156 1.62494C68.5937 1.46869 68.5156 1.39056 68.3594 1.39056H53.8281C52.5 1.39056 51.9531 1.78119 51.9531 2.71869V19.4374C51.9531 20.2187 52.3437 20.6093 53.3594 20.6093H66.875C67.1875 20.6093 67.3437 20.5312 67.4219 20.2968L68.4375 17.7187C68.5156 17.5624 68.4375 17.4843 68.2812 17.4843H55.9375V14.0468C55.9375 12.8749 56.5625 12.3281 58.3594 12.3281H63.75C64.0625 12.3281 64.2187 12.2499 64.2969 12.0156L65.3125 9.51556C65.3906 9.35931 65.3125 9.28119 65.1562 9.28119H56.0156V4.43744H66.9531V4.51556Z" fill="white"/>
<path id="XMLID_238_" fill-rule="evenodd" clip-rule="evenodd" d="M41.4058 10.4531C42.9683 9.59369 43.5933 8.10931 43.5933 6.23431C43.5933 2.01556 40.1558 1.39056 36.562 1.39056H28.3589C27.0308 1.39056 26.4839 1.78119 26.4839 2.71869V19.4374C26.4839 20.2187 26.8745 20.6093 27.8901 20.6093H37.9683C41.7964 20.6093 44.4526 19.1249 44.4526 15.2968C44.5308 12.9531 43.5933 10.9999 41.4058 10.4531ZM30.5468 4.43752H36.8749C38.9843 4.43752 39.6093 5.21877 39.6093 6.85939C39.6093 8.50002 38.9843 9.28127 36.8749 9.28127H30.5468V4.43752ZM30.5468 17.4845H37.6562C39.9218 17.4845 40.5468 16.7032 40.5468 14.9063C40.5468 13.1095 39.9218 12.2501 37.6562 12.2501H32.9687C31.1718 12.2501 30.5468 12.797 30.5468 13.9688V17.4845Z" fill="white"/>
<path id="XMLID_235_" fill-rule="evenodd" clip-rule="evenodd" d="M89.375 12.8749L93.6719 20.2968C93.75 20.3749 93.75 20.6093 93.5938 20.6093H89.9219C89.6094 20.6093 89.5312 20.5312 89.375 20.2968L85.4688 13.2656H81.9531C80.1562 13.2656 79.5312 13.8124 79.5312 14.9843V20.6093H76.0156C75.7812 20.6093 75.5469 20.3749 75.5469 20.1406V2.71869C75.5469 1.78119 76.0938 1.39056 77.4219 1.39056H85.625C90.3906 1.39056 93.2812 2.64056 93.2812 7.32806C93.2812 10.9218 91.4844 12.3281 89.375 12.8749ZM79.4527 10.2969H86.1714C88.6714 10.2969 89.2183 9.35939 89.2183 7.32814C89.2183 5.37502 88.6714 4.43752 86.1714 4.43752H79.4527V10.2969Z" fill="white"/>
</g>
<g id="XMLID_224_">
<path id="XMLID_232_" d="M123.594 18.8905L123.516 20.6093H109.297V1.39053H122.969L123.047 3.18741H111.25V9.82803H121.406V11.3905H111.25V18.8905H123.594Z" fill="#57AD56" stroke="#57AD56" stroke-width="0.25"/>
<g id="XMLID_229_">
<path fill-rule="evenodd" clip-rule="evenodd" d="M135.39 15.6093H146.718L148.906 20.6093H151.093L142.265 1.39053H140L131.093 20.6093H133.203L135.39 15.6093ZM136.093 13.9688L140.234 4.67188L141.015 2.71876H141.093L141.874 4.67188L145.937 13.9688H136.093Z" fill="#57AD56"/>
<path d="M146.718 15.6093L146.833 15.5592L146.8 15.4843H146.718V15.6093ZM135.39 15.6093V15.4843H135.308L135.276 15.5592L135.39 15.6093ZM148.906 20.6093L148.791 20.6594L148.824 20.7343H148.906V20.6093ZM151.093 20.6093V20.7343H151.288L151.207 20.5571L151.093 20.6093ZM142.265 1.39053L142.379 1.33836L142.345 1.26553H142.265V1.39053ZM140 1.39053V1.26553H139.92L139.886 1.33798L140 1.39053ZM131.093 20.6093L130.98 20.5567L130.898 20.7343H131.093V20.6093ZM133.203 20.6093V20.7343H133.284L133.317 20.6594L133.203 20.6093ZM140.234 4.67188L140.348 4.72278L140.35 4.71831L140.234 4.67188ZM136.093 13.9688L135.979 13.9179L135.901 14.0938H136.093V13.9688ZM141.015 2.71876V2.59376H140.93L140.899 2.67233L141.015 2.71876ZM141.093 2.71876L141.209 2.67233L141.178 2.59376H141.093V2.71876ZM141.874 4.67188L141.758 4.71833L141.76 4.72194L141.874 4.67188ZM145.937 13.9688V14.0938H146.128L146.051 13.9187L145.937 13.9688ZM146.718 15.4843H135.39V15.7343H146.718V15.4843ZM149.02 20.5592L146.833 15.5592L146.604 15.6594L148.791 20.6594L149.02 20.5592ZM151.093 20.4843H148.906V20.7343H151.093V20.4843ZM142.152 1.44271L150.98 20.6615L151.207 20.5571L142.379 1.33836L142.152 1.44271ZM140 1.51553H142.265V1.26553H140V1.51553ZM131.207 20.6618L140.113 1.44309L139.886 1.33798L130.98 20.5567L131.207 20.6618ZM133.203 20.4843H131.093V20.7343H133.203V20.4843ZM135.276 15.5592L133.088 20.5592L133.317 20.6594L135.505 15.6594L135.276 15.5592ZM140.12 4.62103L135.979 13.9179L136.207 14.0196L140.348 4.72274L140.12 4.62103ZM140.899 2.67233L140.118 4.62546L140.35 4.71831L141.131 2.76518L140.899 2.67233ZM141.093 2.59376H141.015V2.84376H141.093V2.59376ZM141.99 4.62546L141.209 2.67233L140.977 2.76518L141.758 4.71831L141.99 4.62546ZM146.051 13.9187L141.989 4.62183L141.76 4.72194L145.822 14.0188L146.051 13.9187ZM136.093 14.0938H145.937V13.8438H136.093V14.0938Z" fill="#57AD56"/>
</g>
<path id="XMLID_227_" d="M165.156 3.18741V20.6093H163.203V3.18741H156.015L156.093 1.39053H172.421V3.18741H165.156Z" fill="#57AD56" stroke="#57AD56" stroke-width="0.25"/>
<path id="XMLID_225_" d="M186.329 21C183.672 21 181.563 20.375 179.844 19.3594L180.157 17.6406C181.954 18.6562 183.985 19.2812 186.407 19.2812C190 19.2812 191.875 17.6406 191.875 15.2969C191.875 10.2188 180.157 12.875 180.157 6.3125C180.157 3.5 182.266 1 187.188 1C189.454 1 191.485 1.39063 193.125 2.17188L192.813 3.8125C191.016 3.10938 189.297 2.71875 187.266 2.71875C183.438 2.71875 182.032 4.4375 182.032 6.15625C182.032 11 193.75 8.26562 193.75 15.1406C193.672 18.5781 191.172 21 186.329 21Z" fill="#57AD56" stroke="#57AD56" stroke-width="0.25"/>
</g>
</g>
</svg>
