<svg width="25" height="20" viewBox="0 0 25 20" fill="none" xmlns="http://www.w3.org/2000/svg">
<path d="M24.5832 2.36631C23.6937 2.76787 22.7393 3.0402 21.7366 3.16178C22.7604 2.5371 23.5442 1.54627 23.9157 0.369248C22.9552 0.947741 21.8951 1.3678 20.7655 1.59551C19.8609 0.612368 18.5743 0 17.1472 0C14.4093 0 12.1894 2.26171 12.1894 5.04962C12.1894 5.44501 12.2332 5.8312 12.3178 6.20049C8.19818 5.98967 4.54518 3.97877 2.10028 0.923119C1.6729 1.66781 1.42977 2.53553 1.42977 3.46179C1.42977 5.21424 2.30565 6.76051 3.63459 7.66517C2.82212 7.63749 2.05798 7.40978 1.38902 7.03127V7.09436C1.38902 9.54069 3.09849 11.5824 5.36519 12.0471C4.94989 12.1609 4.51197 12.224 4.05892 12.224C3.73879 12.224 3.42921 12.1917 3.12566 12.1301C3.75688 14.138 5.58719 15.5981 7.75576 15.6381C6.05986 16.9921 3.92151 17.7967 1.59894 17.7967C1.19876 17.7967 0.804593 17.7721 0.416504 17.7275C2.61074 19.163 5.21573 20 8.01551 20C17.1352 20 22.1202 12.304 22.1202 5.62968L22.1036 4.97579C23.0776 4.26799 23.9202 3.37871 24.5832 2.36631Z" fill="white"/>
</svg>
