<svg width="20" height="20" viewBox="0 0 20 20" fill="none" xmlns="http://www.w3.org/2000/svg">
<path d="M14.4806 0H5.51916C2.4759 0 0 2.47601 0 5.51928V14.4807C0 17.5241 2.4759 20 5.51916 20H14.4806C17.5241 20 20 17.524 20 14.4807V5.51928C20.0001 2.47601 17.5241 0 14.4806 0ZM18.2256 14.4807C18.2256 16.5456 16.5456 18.2255 14.4807 18.2255H5.51916C3.45435 18.2256 1.7745 16.5456 1.7745 14.4807V5.51928C1.7745 3.45447 3.45435 1.7745 5.51916 1.7745H14.4806C16.5455 1.7745 18.2255 3.45447 18.2255 5.51928V14.4807H18.2256Z" fill="white"/>
<path d="M10.0002 4.8468C7.15849 4.8468 4.84668 7.15862 4.84668 10.0003C4.84668 12.8419 7.15849 15.1536 10.0002 15.1536C12.8419 15.1536 15.1537 12.8419 15.1537 10.0003C15.1537 7.15862 12.8419 4.8468 10.0002 4.8468ZM10.0002 13.3789C8.13707 13.3789 6.62118 11.8633 6.62118 10.0002C6.62118 8.13696 8.13695 6.62118 10.0002 6.62118C11.8634 6.62118 13.3792 8.13696 13.3792 10.0002C13.3792 11.8633 11.8633 13.3789 10.0002 13.3789Z" fill="white"/>
<path d="M15.3697 3.34208C15.0278 3.34208 14.6919 3.48049 14.4505 3.723C14.2078 3.96434 14.0684 4.30031 14.0684 4.64338C14.0684 4.98538 14.208 5.32123 14.4505 5.56375C14.6918 5.80508 15.0278 5.94467 15.3697 5.94467C15.7127 5.94467 16.0475 5.80508 16.29 5.56375C16.5325 5.32123 16.671 4.98526 16.671 4.64338C16.671 4.30031 16.5325 3.96434 16.29 3.723C16.0487 3.48049 15.7127 3.34208 15.3697 3.34208Z" fill="white"/>
</svg>
